<svg xmlns="http://www.w3.org/2000/svg" width="216" height="216" viewBox="0 0 216 216">
  <defs>
    <style>
      .cls-1 {
        fill: #ffc400;
      }

      .cls-2 {
        font-size: 150px;
        font-family: SegoeUIBlack, Segoe UI;
      }

      .cls-3, .cls-4 {
        stroke: none;
      }
    </style>
  </defs>
  <g id="logoNoName" transform="translate(-255.468 -73)">
    <g id="Path_1795" data-name="Path 1795" class="cls-1" transform="translate(255.468 73)">
      <path class="cls-3" d="M 108 214.5 C 100.7731399536133 214.5 93.55124664306641 213.7720336914063 86.53494262695313 212.3362731933594 C 79.69772338867188 210.9371643066406 72.97241973876953 208.8495330810547 66.54586029052734 206.1313018798828 C 60.23561096191406 203.4623107910156 54.14927673339844 200.1587524414063 48.45589065551758 196.3123626708984 C 42.81619262695313 192.5022735595703 37.51283264160156 188.1265869140625 32.69313812255859 183.3068542480469 C 27.87341690063477 178.4871673583984 23.49772262573242 173.1838073730469 19.6876392364502 167.5441131591797 C 15.8412504196167 161.8507232666016 12.53769397735596 155.7643890380859 9.868694305419922 149.4541320800781 C 7.150472164154053 143.027587890625 5.062833309173584 136.3022766113281 3.663722276687622 129.4650573730469 C 2.227972269058228 122.4487533569336 1.5 115.2268600463867 1.5 108 C 1.5 100.7731399536133 2.227972269058228 93.55124664306641 3.663722276687622 86.53494262695313 C 5.062833309173584 79.69772338867188 7.150472164154053 72.97241973876953 9.868694305419922 66.54586029052734 C 12.53769397735596 60.23561096191406 15.8412504196167 54.14927673339844 19.6876392364502 48.45589065551758 C 23.49772262573242 42.81619262695313 27.87341690063477 37.51283264160156 32.69313812255859 32.69313812255859 C 37.51283264160156 27.87341690063477 42.81619262695313 23.49772262573242 48.45589065551758 19.6876392364502 C 54.14927673339844 15.8412504196167 60.23561096191406 12.53769397735596 66.54586029052734 9.868694305419922 C 72.97241973876953 7.150472164154053 79.69772338867188 5.062833309173584 86.53494262695313 3.663722276687622 C 93.55124664306641 2.227972269058228 100.7731399536133 1.5 108 1.5 C 115.2268600463867 1.5 122.4487533569336 2.227972269058228 129.4650573730469 3.663722276687622 C 136.3022766113281 5.062833309173584 143.027587890625 7.150472164154053 149.4541320800781 9.868694305419922 C 155.7643890380859 12.53769397735596 161.8507232666016 15.8412504196167 167.5441131591797 19.6876392364502 C 173.1838073730469 23.49772262573242 178.4871673583984 27.87341690063477 183.3068542480469 32.69313812255859 C 188.1265869140625 37.51283264160156 192.5022735595703 42.81619262695313 196.3123626708984 48.45589065551758 C 200.1587524414063 54.14927673339844 203.4623107910156 60.23561096191406 206.1313018798828 66.54586029052734 C 208.8495330810547 72.97241973876953 210.9371643066406 79.69772338867188 212.3362731933594 86.53494262695313 C 213.7720336914063 93.55124664306641 214.5 100.7731399536133 214.5 108 C 214.5 115.2268600463867 213.7720336914063 122.4487533569336 212.3362731933594 129.4650573730469 C 210.9371643066406 136.3022766113281 208.8495330810547 143.027587890625 206.1313018798828 149.4541320800781 C 203.4623107910156 155.7643890380859 200.1587524414063 161.8507232666016 196.3123626708984 167.5441131591797 C 192.5022735595703 173.1838073730469 188.1265869140625 178.4871673583984 183.3068542480469 183.3068542480469 C 178.4871673583984 188.1265869140625 173.1838073730469 192.5022735595703 167.5441131591797 196.3123626708984 C 161.8507232666016 200.1587524414063 155.7643890380859 203.4623107910156 149.4541320800781 206.1313018798828 C 143.027587890625 208.8495330810547 136.3022766113281 210.9371643066406 129.4650573730469 212.3362731933594 C 122.4487533569336 213.7720336914063 115.2268600463867 214.5 108 214.5 Z"/>
      <path class="cls-4" d="M 108 3 C 100.873908996582 3 93.75320434570313 3.717742919921875 86.83567810058594 5.133270263671875 C 80.09544372558594 6.512527465820313 73.46556091308594 8.570556640625 67.13017272949219 11.25018310546875 C 60.90914916992188 13.8814697265625 54.90873718261719 17.13841247558594 49.29559326171875 20.93058776855469 C 43.73503112792969 24.68724060058594 38.50599670410156 29.0015869140625 33.75379943847656 33.75379943847656 C 29.0015869140625 38.50599670410156 24.68724060058594 43.73503112792969 20.93058776855469 49.29559326171875 C 17.13841247558594 54.90873718261719 13.8814697265625 60.90914916992188 11.25018310546875 67.13017272949219 C 8.570556640625 73.46556091308594 6.512527465820313 80.09544372558594 5.133270263671875 86.83567810058594 C 3.717742919921875 93.75320434570313 3 100.873908996582 3 108 C 3 115.126091003418 3.717742919921875 122.2467956542969 5.133270263671875 129.1643218994141 C 6.512527465820313 135.9045562744141 8.570556640625 142.5344390869141 11.25018310546875 148.8698272705078 C 13.8814697265625 155.0908508300781 17.13841247558594 161.0912628173828 20.93058776855469 166.7044067382813 C 24.68724060058594 172.2649688720703 29.0015869140625 177.4940032958984 33.75379943847656 182.2462005615234 C 38.50599670410156 186.9984130859375 43.73503112792969 191.3127593994141 49.29559326171875 195.0694122314453 C 54.90873718261719 198.8615875244141 60.90914916992188 202.1185302734375 67.13017272949219 204.7498168945313 C 73.46556091308594 207.429443359375 80.09544372558594 209.4874725341797 86.83567810058594 210.8667297363281 C 93.75320434570313 212.2822570800781 100.873908996582 213 108 213 C 115.126091003418 213 122.2467956542969 212.2822570800781 129.1643218994141 210.8667297363281 C 135.9045562744141 209.4874725341797 142.5344390869141 207.429443359375 148.8698272705078 204.7498168945313 C 155.0908508300781 202.1185302734375 161.0912628173828 198.8615875244141 166.7044067382813 195.0694122314453 C 172.2649688720703 191.3127593994141 177.4940032958984 186.9984130859375 182.2462005615234 182.2462005615234 C 186.9984130859375 177.4940032958984 191.3127593994141 172.2649688720703 195.0694122314453 166.7044067382813 C 198.8615875244141 161.0912628173828 202.1185302734375 155.0908508300781 204.7498168945313 148.8698272705078 C 207.429443359375 142.5344390869141 209.4874725341797 135.9045562744141 210.8667297363281 129.1643218994141 C 212.2822570800781 122.2467956542969 213 115.126091003418 213 108 C 213 100.873908996582 212.2822570800781 93.75320434570313 210.8667297363281 86.83567810058594 C 209.4874725341797 80.09544372558594 207.429443359375 73.46556091308594 204.7498168945313 67.13017272949219 C 202.1185302734375 60.90914916992188 198.8615875244141 54.90873718261719 195.0694122314453 49.29559326171875 C 191.3127593994141 43.73503112792969 186.9984130859375 38.50599670410156 182.2462005615234 33.75379943847656 C 177.4940032958984 29.0015869140625 172.2649688720703 24.68724060058594 166.7044067382813 20.93058776855469 C 161.0912628173828 17.13841247558594 155.0908508300781 13.8814697265625 148.8698272705078 11.25018310546875 C 142.5344390869141 8.570556640625 135.9045562744141 6.512527465820313 129.1643218994141 5.133270263671875 C 122.2467956542969 3.717742919921875 115.126091003418 3 108 3 M 108 0 C 167.646728515625 0 216 48.353271484375 216 108 C 216 167.646728515625 167.646728515625 216 108 216 C 48.353271484375 216 0 167.646728515625 0 108 C 0 48.353271484375 48.353271484375 0 108 0 Z"/>
    </g>
    <text id="_" data-name="$" class="cls-2" transform="translate(318 235)"><tspan x="0" y="0">$</tspan></text>
  </g>
</svg>
